<?xml version="1.0" encoding="UTF-8"?>
<svg id="Layer_1" data-name="Layer 1" xmlns="http://www.w3.org/2000/svg" viewBox="0 0 103.59 97.21">
  <defs>
    <style>
      .cls-1 {
        fill: #a88367;
      }
    </style>
  </defs>
  <path class="cls-1" d="M76.22,97.21c-.99-.13-1.99-.22-2.97-.39-3.46-.61-6.92-1.29-10.38-1.88-2.93-.49-5.86-1.01-8.82-1.31-4.45-.44-8.85,.04-13.22,.96-3.79,.79-7.59,1.51-11.41,2.13-3.08,.5-6.18,.55-9.2-.46-4.13-1.37-7.28-5.42-7.65-9.75-.29-3.4,.7-6.47,2.3-9.39,1.8-3.3,4.11-6.21,7.01-8.59,5.79-4.75,10.53-10.4,14.73-16.55,1.87-2.74,3.94-5.32,6.51-7.46,3.18-2.65,6.83-3.73,10.97-3.52,4.55,.23,7.75,2.6,10.27,6.11,1.17,1.62,2.21,3.35,3.16,5.11,2.78,5.13,6.33,9.69,10.22,14,2.28,2.52,4.81,4.82,7.01,7.39,2.94,3.44,4.67,7.44,4.54,12.07-.07,2.47-.77,4.77-2.09,6.89-1.78,2.84-4.37,4.3-7.68,4.54-.22,.02-.44,.07-.67,.11h-2.64Z"/>
  <path class="cls-1" d="M103.59,45.85c-.28,1.34-.47,2.7-.87,4-1.31,4.29-3.68,7.89-7.27,10.62-2.61,1.99-5.54,2.77-8.79,2.09-2.21-.47-3.81-1.82-5.06-3.63-1.46-2.12-2.17-4.51-2.28-7.04-.29-7.05,2.15-12.99,7.53-17.63,1.52-1.31,3.27-2.28,5.27-2.66,4.14-.8,7.56,.8,9.68,4.46,.93,1.61,1.58,3.33,1.71,5.22,0,.12,.05,.24,.08,.35v4.23Z"/>
  <path class="cls-1" d="M83.59,15.92c-.11,5.76-1.54,10.64-4.65,14.96-1.58,2.19-3.52,3.98-5.96,5.18-4.48,2.19-9.23,1.33-12.63-2.32-2.18-2.33-3.47-5.14-4.06-8.23-1.37-7.19,.05-13.78,4.45-19.67,1.43-1.91,3.21-3.44,5.35-4.55,4.61-2.39,9.75-1.44,13.18,2.47,2.29,2.61,3.51,5.7,4.02,9.09,.18,1.16,.23,2.35,.3,3.06Z"/>
  <path class="cls-1" d="M20.19,17.69c.18-1.8,.19-3.63,.57-5.39,.66-2.97,2.06-5.59,4.24-7.77,4.21-4.19,10.14-3.78,14.06-.94,4.23,3.06,6.85,7.2,8.07,12.25,.95,3.94,1.11,7.9,0,11.85-.65,2.33-1.66,4.49-3.23,6.35-3.61,4.29-8.85,5.27-13.79,2.59-2.47-1.34-4.4-3.26-5.95-5.58-1.88-2.81-3.17-5.89-3.68-9.24-.21-1.35-.14-2.74-.2-4.11-.03,0-.07-.01-.1-.02Z"/>
  <path class="cls-1" d="M24.33,49.77c-.01,3.17-.26,5.46-1.3,7.58-1.4,2.84-3.53,4.83-6.75,5.36-2.84,.47-5.44-.32-7.73-1.98-4.21-3.06-6.85-7.2-8.01-12.28-.76-3.34-.8-6.67,.31-9.95,.85-2.5,2.28-4.57,4.66-5.84,2.66-1.42,5.38-1.3,8.09-.09,3.16,1.42,5.53,3.76,7.37,6.61,2.24,3.46,3.41,7.28,3.35,10.59Z"/>
</svg>