<?xml version="1.0" encoding="utf-8"?>
<!-- Generator: Adobe Illustrator 27.0.0, SVG Export Plug-In . SVG Version: 6.00 Build 0)  -->
<svg version="1.1" id="Layer_1" xmlns="http://www.w3.org/2000/svg" xmlns:xlink="http://www.w3.org/1999/xlink" x="0px" y="0px"
	 viewBox="0 0 216 216" style="enable-background:new 0 0 216 216;" xml:space="preserve">
<style type="text/css">
	.st0{fill:none;}
	.st1{fill:#6C594D;}
	.st2{fill:#EF3E43;}
</style>
<path class="st0" d="M114.89,127.87c0.46,3.19,0.88,6.49,1.29,9.79c2.99-1.24,5.82-4.89,6.34-7.99c0.05-0.36,0.1-0.77,0.05-1.13
	c-0.1-1.08-0.57-1.6-1.6-1.75C118.85,126.47,116.9,126.89,114.89,127.87z"/>
<path class="st0" d="M156.63,88.95c-2.4-1.38-4.91-1.45-7.38-0.28c-1.71,0.8-3.1,2.02-3.09,4.11c0.01,2.17,1.39,3.42,3.24,4.17
	c1.02,0.42,2.14,0.62,3.42,0.97c1.21-0.4,2.6-0.64,3.77-1.28C160.12,94.71,160.11,90.95,156.63,88.95z"/>
<path class="st0" d="M144.2,136.11c-1.65,3.92-3.3,7.93-5.05,12.01c1.24,0,2.42,0.05,3.56,0c1.18,0,2.37,0.21,3.5-0.26
	c-0.57-3.92-1.19-7.83-1.8-11.75C144.36,136.11,144.31,136.11,144.2,136.11z"/>
<path class="st0" d="M89.69,80.99c-0.87-6.42-2.93-12.43-5.6-18.26c-1.21-2.64-2.58-5.21-4-8.08c-2.37,3.94-4.55,7.46-6.62,11.05
	c-0.99,1.73-2.35,2.46-4.3,2.45c-8.17-0.03-16.34-0.03-24.51,0c-1.96,0.01-3.3-0.76-4.29-2.48c-2.06-3.59-4.24-7.11-6.56-10.95
	c-4.48,8.18-8.06,16.26-9.55,25.18c-1.62,9.69,2.47,16.59,10.48,21.48c2.44,1.49,5.1,2.76,7.81,3.67
	c13.66,4.61,26.65,3.11,38.58-5.08C87.7,95.47,90.8,89.18,89.69,80.99z M46.9,87.74c-2.11,0-4.15,0-6.34,0c0-2.09,0-4.17,0-6.42
	c2.07,0,4.14,0,6.34,0C46.9,83.47,46.9,85.55,46.9,87.74z M73.34,87.69c-2.07,0-4.15,0-6.43,0c0-2.16,0-4.2,0-6.39
	c2.16,0,4.24,0,6.43,0C73.34,83.45,73.34,85.5,73.34,87.69z"/>
<path class="st0" d="M24.49,127.73c-2.11-0.31-4.07,0.1-6.08,1.08c0.46,3.19,0.88,6.49,1.29,9.79c2.99-1.24,5.82-4.89,6.34-7.99
	c0.05-0.36,0.1-0.77,0.05-1.13C25.98,128.4,25.52,127.89,24.49,127.73z"/>
<path class="st0" d="M129.84,49.39c-0.23-2.45-0.96-4.84-1.5-7.45c-0.75,0.33-1.18,0.39-1.39,0.64c-1.92,2.29-4.15,4.41-5.64,6.95
	c-4.38,7.46-7.1,15.63-9.09,24.01c-1.09,4.62-1.67,9.36-2.34,14.07c-0.3,2.14,0.63,3.93,2.37,5.24c4.14,3.11,10.4,1.93,12.94-2.56
	c0.92-1.62,1.63-3.41,2.12-5.2C130.5,73.35,130.96,61.41,129.84,49.39z"/>
<path class="st0" d="M172.51,89.06c-4.92-16.31-5.65-32.76-1.72-49.49c-8.69-5.89-28.9-5.84-36.3,0.07
	c0.63,3.11,1.38,6.09,1.82,9.12c1.19,8.14,0.9,16.3-0.06,24.44c-0.71,6.05-1.66,12.1-4.16,17.7c-1.1,2.46-2.84,4.68-4.58,6.77
	c-0.78,0.94-1.16,1.56-0.8,2.75c1.13,3.74,3.4,6.36,7.33,7c4.79,0.79,8.75-1.06,12.29-4.38c-0.96-0.65-1.77-1.13-2.51-1.7
	c-5.43-4.18-5.87-11.56-0.99-16.28c5.07-4.9,13.84-5.12,19.12-0.47c5.23,4.6,5.27,11.69,0.06,16.3c-0.88,0.78-1.91,1.4-3.04,2.23
	c4.04,3.59,8.46,5.39,13.77,4.05c3.65-0.92,6.02-3.89,6.17-7.63c0.02-0.42-0.2-1.02-0.52-1.25
	C175.27,95.94,173.6,92.64,172.51,89.06z M146.02,73.43c-2.12,0-4.22,0-6.5,0c0-2.16,0-4.2,0-6.36c2.2,0,4.3,0,6.5,0
	C146.02,69.2,146.02,71.24,146.02,73.43z M165.77,73.47c-2.2,0-4.23,0-6.39,0c0-2.14,0-4.17,0-6.37c2.11,0,4.19,0,6.39,0
	C165.77,69.2,165.77,71.24,165.77,73.47z"/>
<path class="st0" d="M195.43,85.4c-0.94-8.15-3.11-16-5.87-23.68c-2.1-5.85-4.43-11.63-8.38-16.55c-0.99-1.23-2.31-2.19-3.48-3.28
	c-0.31,0.09-0.61,0.17-0.92,0.26c-0.52,3.38-1.24,6.75-1.52,10.16c-0.7,8.49-0.23,16.96,1.12,25.36c0.72,4.46,1.55,8.93,3.93,12.88
	c2.14,3.55,6.6,4.9,10.78,3.37C194.64,92.63,195.95,89.93,195.43,85.4z"/>
<path class="st1" d="M88.96,120.56c-0.97-4.2-2.58-11.08-5.07-14.4c0.49-0.37,0.83-0.64,1.18-0.9c9.06-6.88,13.05-15.74,10.95-27.19
	c-2.06-11.18-6.78-21.22-12.65-30.8c-1.98-3.24-4.7-3.19-6.67,0.06c-2.6,4.3-5.14,8.63-7.81,12.89c-0.37,0.59-1.31,1.16-2,1.17
	c-6.6,0.09-13.21,0.03-19.81,0.08c-1.08,0.01-1.68-0.34-2.22-1.27c-2.57-4.39-5.19-8.75-7.84-13.09c-1.8-2.95-4.55-3.01-6.37-0.09
	c-5.78,9.27-10.42,19.03-12.61,29.82c-1.67,8.21-0.88,15.94,4.71,22.57c2.09,2.48,4.59,4.62,6.73,6.74
	c-1.03,2.22-5.35,10.81-6.92,14.07c0.91-0.11,1.84-0.15,2.8-0.11c1.28,0.05,2.51,0.29,3.66,0.68c0.94-4.02,4.17-10.01,6.41-10.59
	c0.38-0.1,1.25-0.28,1.76-0.06c6.74,2.87,13.75,4.31,21.09,4.1c6.29-0.18,12.33-1.49,18.06-4.06c1.39-0.62,2.1-0.38,2.89,0.84
	c1.08,1.66,2.37,6.85,3.14,9.6c2.13-0.01,4.27-0.03,6.41-0.05C88.85,120.57,88.9,120.56,88.96,120.56z M42.55,105.04
	c-2.71-0.92-5.36-2.18-7.81-3.67c-8.02-4.89-12.1-11.79-10.48-21.48c1.49-8.91,5.06-17,9.55-25.18c2.31,3.85,4.5,7.36,6.56,10.95
	c0.99,1.72,2.33,2.49,4.29,2.48c8.17-0.03,16.34-0.03,24.51,0c1.95,0.01,3.31-0.72,4.3-2.45c2.06-3.59,4.25-7.11,6.62-11.05
	c1.43,2.87,2.8,5.44,4,8.08c2.67,5.83,4.72,11.84,5.6,18.26c1.12,8.2-1.99,14.48-8.55,18.98C69.21,108.15,56.21,109.65,42.55,105.04
	z"/>
<path class="st1" d="M191.83,100.75c8.03-2.82,11.03-7.07,10.09-15.8c-0.56-5.21-1.72-10.4-3-15.49
	c-2.29-9.09-5.31-17.94-10.61-25.81c-2.79-4.14-6.14-7.67-11.39-8.64c-0.47-0.09-0.89-0.44-1.34-0.67
	c-13.02-6.73-26.4-7.98-40.18-2.58c-2.62,1.03-5.19,2.19-7.7,3.45c-2.33,1.16-4.99,2.12-6.71,3.92c-2.62,2.73-4.95,5.89-6.7,9.24
	c-6.12,11.69-9.44,24.3-11.02,37.34c-0.91,7.51,2.82,12.72,10.05,14.93c0.23,0.07,0.45,0.16,0.29,0.1
	c-1.53,3.01-2.18,13.92-1.54,20.77c2.38-1.21,4.86-2.05,7.52-2.29c-0.5-2.26-1.18-4.88-1.24-5.5c-0.28-3.06-0.15-6.23,1.9-10.29
	c3.13,6.44,7.79,10.49,15.07,10.81c7.07,0.32,12.48-3.13,17.31-7.84c1.44,1.21,2.77,2.44,4.21,3.51c4.62,3.46,9.8,5,15.57,4.16
	c6.12-0.9,10.34-4.21,12.4-10.16c0.19,0.03,0.37,0.07,0.56,0.1c0,3.16,0.05,11.76,0.06,15.94c2.03-1.46,4.31-2.49,6.63-2.75
	C191.93,112.6,191.99,104.83,191.83,100.75z M112.25,92.84c-1.74-1.31-2.68-3.1-2.37-5.24c0.67-4.71,1.25-9.45,2.34-14.07
	c1.98-8.38,4.71-16.55,9.09-24.01c1.49-2.54,3.72-4.66,5.64-6.95c0.21-0.25,0.64-0.3,1.39-0.64c0.54,2.61,1.27,5.01,1.5,7.45
	c1.12,12.02,0.66,23.96-2.53,35.68c-0.49,1.8-1.2,3.58-2.12,5.2C122.65,94.77,116.39,95.95,112.25,92.84z M156.59,96.64
	c-1.17,0.64-2.56,0.88-3.77,1.28c-1.28-0.35-2.4-0.55-3.42-0.97c-1.85-0.75-3.23-2.01-3.24-4.17c-0.01-2.1,1.38-3.31,3.09-4.11
	c2.48-1.17,4.99-1.1,7.38,0.28C160.11,90.95,160.12,94.71,156.59,96.64z M172.76,107.15c-5.31,1.34-9.73-0.46-13.77-4.05
	c1.13-0.82,2.15-1.45,3.04-2.23c5.21-4.61,5.17-11.7-0.06-16.3c-5.29-4.65-14.05-4.43-19.12,0.47c-4.89,4.72-4.45,12.1,0.99,16.28
	c0.74,0.57,1.54,1.05,2.51,1.7c-3.54,3.32-7.5,5.17-12.29,4.38c-3.92-0.65-6.19-3.26-7.33-7c-0.36-1.18,0.02-1.81,0.8-2.75
	c1.73-2.09,3.48-4.32,4.58-6.77c2.5-5.6,3.45-11.65,4.16-17.7c0.96-8.13,1.24-16.3,0.06-24.44c-0.44-3.03-1.19-6.01-1.82-9.12
	c7.39-5.92,27.6-5.97,36.3-0.07c-3.93,16.73-3.2,33.19,1.72,49.49c1.08,3.58,2.75,6.88,5.89,9.21c0.32,0.23,0.53,0.83,0.52,1.25
	C178.78,103.26,176.41,106.22,172.76,107.15z M180.29,90.56c-2.38-3.95-3.21-8.42-3.93-12.88c-1.35-8.4-1.82-16.87-1.12-25.36
	c0.28-3.4,1-6.77,1.52-10.16c0.31-0.09,0.61-0.17,0.92-0.26c1.17,1.09,2.49,2.05,3.48,3.28c3.95,4.91,6.28,10.69,8.38,16.55
	c2.76,7.69,4.93,15.53,5.87,23.68c0.52,4.53-0.79,7.22-4.36,8.53C186.9,95.45,182.43,94.11,180.29,90.56z"/>
<path class="st1" d="M40.56,87.74c2.19,0,4.23,0,6.34,0c0-2.19,0-4.28,0-6.42c-2.2,0-4.27,0-6.34,0
	C40.56,83.57,40.56,85.65,40.56,87.74z"/>
<path class="st1" d="M66.91,87.69c2.28,0,4.36,0,6.43,0c0-2.2,0-4.24,0-6.39c-2.18,0-4.27,0-6.43,0
	C66.91,83.49,66.91,85.54,66.91,87.69z"/>
<path class="st1" d="M139.51,73.43c2.28,0,4.38,0,6.5,0c0-2.18,0-4.23,0-6.36c-2.21,0-4.31,0-6.5,0
	C139.51,69.23,139.51,71.27,139.51,73.43z"/>
<path class="st1" d="M159.39,73.47c2.15,0,4.19,0,6.39,0c0-2.23,0-4.27,0-6.37c-2.2,0-4.28,0-6.39,0
	C159.39,69.3,159.39,71.34,159.39,73.47z"/>
<path class="st2" d="M22.56,122.32c-2.52,0.3-4.87,1.14-7.14,2.31c-0.62,0.31-1.19,0.57-1.7,0.72c-0.98,0.21-1.85,0.72-2.11,1.6
	c-0.57,1.39-0.93,2.89-1.24,4.38c-0.15,1.08,0,2.22-0.05,3.3c-0.15,6.8,0.41,13.55,1.6,20.25c0.31,1.44,0.62,2.94,1.18,4.28
	c0.67,1.75,2.47,2.68,4.12,2.47c1.8-0.31,3.19-1.55,3.4-3.5c0.1-0.88,0.1-1.75,0.1-2.63c0-1.6,0-3.14,0-4.84
	c3.14-0.62,6.03-1.91,8.6-3.66c5-3.45,7.42-8.24,7.06-14.32c-0.28-4.86-3.29-8.37-7.37-9.78c-1.15-0.4-2.38-0.64-3.66-0.68
	C24.41,122.17,23.48,122.21,22.56,122.32z M26.03,132.72c-0.52,3.09-3.35,6.75-6.34,7.99c-0.41-3.3-0.82-6.59-1.29-9.79
	c2.01-0.98,3.97-1.39,6.08-1.08c1.03,0.15,1.49,0.67,1.6,1.75C26.14,131.94,26.09,132.36,26.03,132.72z"/>
<path class="st2" d="M59.83,151.78c-0.77-0.46-1.7-0.62-2.63-0.46c-2.16,0.26-4.28,0.52-6.39,0.77c-2.16,0.15-3.25-0.57-3.61-2.78
	c-0.21-1.49-0.21-3.19-0.26-4.79c-0.05-0.36,0.05-0.67,0.05-0.98c2.32-0.15,4.53-0.36,6.7-0.57c1.39-0.15,2.78-0.31,3.97-1.03
	c1.13-0.67,1.8-1.7,1.65-2.94c-0.21-1.34-0.93-2.16-2.22-2.58c-0.41-0.15-0.88-0.21-1.29-0.21c-1.96,0-3.97,0-5.93,0
	c-0.82,0-1.65,0-2.58,0c0.15-2.11,0.31-4.07,0.46-6.13c1.19-0.15,2.32-0.31,3.45-0.46c2.06-0.1,4.02-0.41,6.03-0.57
	c1.6-0.1,2.89-0.93,3.25-2.42c0.26-1.44-0.46-2.94-2.01-3.55c-0.82-0.36-1.7-0.52-2.52-0.52c-2.01,0-4.07,0.1-6.08,0.15
	c-2.42,0.15-4.84,0.31-7.32,0.57c-0.82,0.1-1.7,0.41-2.37,0.88c-1.85,1.13-1.91,3.45-0.15,4.79c0.21,0.15,0.57,0.36,0.88,0.57
	c0,0.26,0,0.46,0,0.67c-0.52,4.28-1.03,8.55-1.49,12.88c-0.21,2.58-0.21,5.05,0.15,7.63c0.98,5.77,5.67,9.53,11.44,9.33
	c2.52-0.1,5.05-0.72,7.37-1.7c0.72-0.31,1.44-0.67,2.11-1.13C62.25,155.59,61.95,152.86,59.83,151.78z"/>
<path class="st2" d="M94.87,122.46c-0.67-0.26-1.44-0.26-2.22-0.21c-1.18,0.05-2.41,0.37-3.69,0.4c-0.06,0-0.12,0.01-0.17,0.01
	c-2.14,0.02-4.27,0.04-6.41,0.05c-2.64,0.01-5.29,0-7.97-0.05c-1.96-0.05-3.97-0.26-5.98-0.51c-1.96-0.15-3.71,0.67-4.33,2.22
	c-0.67,1.55,0,3.19,1.7,4.38c1.34,0.93,2.78,1.44,4.38,1.8c1.65,0.31,3.35,0.57,5.05,0.93c-0.05,0.46-0.05,0.93-0.1,1.39
	c-0.05,1.65-0.31,3.25-0.36,4.84c-0.15,6.03,0.41,12,1.13,17.98c0.15,1.34,0.41,2.78,0.88,4.12c0.62,1.8,2.47,2.94,4.28,2.83
	c2.01-0.21,3.61-1.65,3.92-3.71c0.21-0.98,0.26-1.96,0.26-2.99c0-8.24,0.31-16.49-0.67-24.78c0.31-0.1,0.52-0.15,0.67-0.15
	c2.37-0.31,4.79-0.52,7.16-1.03c1.24-0.26,2.42-0.93,3.55-1.6c1.03-0.67,1.55-1.85,1.34-3.25C97.03,123.8,96.21,122.88,94.87,122.46
	z"/>
<path class="st2" d="M111.9,123.68c-0.62,0.31-1.19,0.57-1.7,0.72c-0.98,0.21-1.85,0.72-2.11,1.6c-0.57,1.39-0.93,2.89-1.24,4.38
	c-0.15,1.08,0,2.22-0.05,3.3c-0.15,6.8,0.41,13.55,1.6,20.25c0.31,1.44,0.62,2.94,1.18,4.28c0.67,1.75,2.47,2.68,4.12,2.47
	c1.8-0.31,3.19-1.55,3.4-3.5c0.1-0.88,0.1-1.75,0.1-2.63c0-1.6,0-3.14,0-4.84c3.14-0.62,6.03-1.91,8.6-3.66
	c5-3.45,7.42-8.24,7.06-14.32c-0.36-6.23-5.2-10.25-11.03-10.46c-0.77-0.03-1.53,0-2.27,0.06c-2.66,0.24-5.14,1.07-7.52,2.29
	C112,123.63,111.95,123.65,111.9,123.68z M120.97,128.88c1.03,0.15,1.49,0.67,1.6,1.75c0.05,0.36,0,0.77-0.05,1.13
	c-0.52,3.09-3.35,6.75-6.34,7.99c-0.41-3.3-0.82-6.59-1.29-9.79C116.9,128.98,118.85,128.57,120.97,128.88z"/>
<path class="st2" d="M155.02,147.02c-1.13-7.21-2.83-14.32-4.59-21.38c-0.15-0.62-0.41-1.29-0.67-1.91
	c-1.34-2.58-4.74-2.99-6.7-0.82c-0.51,0.52-0.82,1.03-1.08,1.65c-1.34,3.04-2.68,6.08-3.86,9.22c-2.32,5.82-4.53,11.64-6.75,17.47
	c-0.41,1.03-0.82,2.01-1.65,2.89c-0.77,0.77-0.93,1.85-0.36,2.94c0.46,0.98,1.34,1.49,2.47,1.55c1.39,0.05,2.52-0.52,3.25-1.55
	c0.67-0.98,1.55-1.19,2.68-1.19c3.19,0.1,6.39,0.05,9.69-0.72c0.26,0.98,0.52,1.91,0.82,2.68c0.67,1.65,2.27,2.73,3.92,2.58
	c1.8-0.15,3.19-1.29,3.61-3.04c0.1-0.67,0.15-1.39,0.1-2.06C155.69,152.58,155.49,149.8,155.02,147.02z M142.71,150.21
	c-1.13,0.05-2.32,0-3.56,0c1.75-4.07,3.4-8.09,5.05-12.01c0.1,0,0.15,0,0.21,0c0.62,3.92,1.24,7.83,1.8,11.75
	C145.08,150.42,143.89,150.21,142.71,150.21z"/>
<path class="st2" d="M185.22,149.54c-0.93-0.36-1.91-0.52-2.83-0.52c-3.3-0.05-6.59,0.31-9.79,0.88c-0.98,0.21-1.96,0.36-3.04,0.46
	c0-0.72,0-1.34,0-1.96c0.05-0.98,0.21-1.96,0.21-2.99c0.15-4.59,0.36-9.22,0.46-13.81c0.05-2.16-0.1-4.33-0.21-6.49
	c-0.1-1.19-0.62-2.22-1.7-2.94c-2.01-1.24-4.53-0.57-5.56,1.65c-0.52,1.08-0.82,2.22-1.08,3.35c-0.72,4.17-1.55,8.4-2.06,12.52
	c-0.52,3.61-0.72,7.16-1.03,10.77c-0.1,1.6,0,3.14,0.21,4.69c0.31,2.68,2.01,4.59,4.59,5.1c1.39,0.26,2.73,0.26,4.07,0.15
	c2.47-0.26,4.89-0.57,7.26-0.93c3.09-0.41,6.08-1.03,8.97-2.11c0.88-0.36,1.85-0.82,2.58-1.49
	C188.41,153.97,187.89,150.68,185.22,149.54z"/>
<path class="st2" d="M200.86,138.37c-1.69-0.8-3.56-1.23-5.8-1.63c-4.56-0.72-6-5.15-2.08-6.27c2.73-0.79,5.49,0.68,7.36-2.37
	c1.47-2.26,0.66-5.36-1.8-7.2c-2.06-1.43-4.29-1.86-6.49-1.61c-2.32,0.27-4.6,1.29-6.63,2.75c-1.27,0.92-2.45,2-3.46,3.17
	c-2.79,3.59-2.84,8.91-0.19,12.88c3.17,4.84,8,6.09,13.29,6.72c1.65,0.19,5.25,2.03,2.14,4.61c-1.21,0.97-6.04,2.68-7.28,3.73
	c-1.09,1.11-1.47,2.58-0.84,4.23c0.55,1.43,1.74,2.24,3.2,2.44c0.49,0.13,0.84,0.06,1.27,0.02
	C206,159.25,215.03,145.07,200.86,138.37z"/>
</svg>
