<?xml version="1.0" encoding="utf-8"?>
<!-- Generator: Adobe Illustrator 27.0.0, SVG Export Plug-In . SVG Version: 6.00 Build 0)  -->
<svg version="1.1" id="Layer_1" xmlns="http://www.w3.org/2000/svg" xmlns:xlink="http://www.w3.org/1999/xlink" x="0px" y="0px"
	 viewBox="0 0 1008 144" style="enable-background:new 0 0 1008 144;" xml:space="preserve">
<style type="text/css">
	.st0{fill:#A88367;}
</style>
<g>
	<path class="st0" d="M57.27,119.58c-0.41-0.05-0.83-0.09-1.24-0.16c-1.45-0.26-2.89-0.54-4.34-0.78c-1.22-0.21-2.45-0.42-3.68-0.55
		c-1.86-0.18-3.7,0.02-5.52,0.4c-1.58,0.33-3.17,0.63-4.77,0.89c-1.29,0.21-2.58,0.23-3.84-0.19c-1.73-0.57-3.04-2.26-3.2-4.07
		c-0.12-1.42,0.29-2.7,0.96-3.92c0.75-1.38,1.72-2.6,2.93-3.59c2.42-1.98,4.4-4.34,6.15-6.92c0.78-1.14,1.65-2.22,2.72-3.12
		c1.33-1.11,2.85-1.56,4.58-1.47c1.9,0.1,3.24,1.09,4.29,2.55c0.49,0.68,0.92,1.4,1.32,2.14c1.16,2.14,2.65,4.05,4.27,5.85
		c0.95,1.05,2.01,2.01,2.93,3.09c1.23,1.44,1.95,3.11,1.9,5.04c-0.03,1.03-0.32,2-0.87,2.88c-0.74,1.19-1.82,1.8-3.21,1.9
		c-0.09,0.01-0.19,0.03-0.28,0.04C58.01,119.58,57.64,119.58,57.27,119.58z"/>
	<path class="st0" d="M68.71,98.11c-0.12,0.56-0.2,1.13-0.36,1.67c-0.55,1.79-1.54,3.3-3.04,4.44c-1.09,0.83-2.32,1.16-3.67,0.87
		c-0.92-0.19-1.59-0.76-2.11-1.52c-0.61-0.88-0.91-1.89-0.95-2.94c-0.12-2.95,0.9-5.43,3.15-7.37c0.64-0.55,1.37-0.95,2.2-1.11
		c1.73-0.33,3.16,0.33,4.05,1.86c0.39,0.67,0.66,1.39,0.71,2.18c0,0.05,0.02,0.1,0.03,0.15C68.71,96.94,68.71,97.53,68.71,98.11z"/>
	<path class="st0" d="M60.35,85.61c-0.05,2.41-0.64,4.44-1.94,6.25c-0.66,0.91-1.47,1.66-2.49,2.16c-1.87,0.92-3.86,0.56-5.28-0.97
		c-0.91-0.97-1.45-2.15-1.7-3.44c-0.57-3,0.02-5.76,1.86-8.22c0.6-0.8,1.34-1.44,2.23-1.9c1.93-1,4.07-0.6,5.51,1.03
		c0.96,1.09,1.47,2.38,1.68,3.8C60.3,84.82,60.33,85.31,60.35,85.61z"/>
	<path class="st0" d="M33.86,86.35c0.07-0.75,0.08-1.52,0.24-2.25c0.27-1.24,0.86-2.34,1.77-3.25c1.76-1.75,4.24-1.58,5.88-0.39
		c1.77,1.28,2.86,3.01,3.37,5.12c0.4,1.65,0.46,3.3,0,4.95c-0.27,0.97-0.69,1.87-1.35,2.65c-1.51,1.79-3.7,2.2-5.76,1.08
		c-1.03-0.56-1.84-1.36-2.49-2.33c-0.79-1.18-1.32-2.46-1.54-3.86c-0.09-0.56-0.06-1.14-0.08-1.72
		C33.89,86.35,33.88,86.35,33.86,86.35z"/>
	<path class="st0" d="M35.59,99.75c-0.01,1.33-0.11,2.28-0.54,3.17c-0.58,1.19-1.48,2.02-2.82,2.24c-1.19,0.2-2.27-0.13-3.23-0.83
		c-1.76-1.28-2.86-3.01-3.35-5.13c-0.32-1.4-0.34-2.79,0.13-4.16c0.36-1.04,0.95-1.91,1.95-2.44c1.11-0.59,2.25-0.54,3.38-0.04
		c1.32,0.59,2.31,1.57,3.08,2.76C35.13,96.77,35.62,98.37,35.59,99.75z"/>
</g>
<g>
	<path class="st0" d="M117.63,119.58c-0.41-0.05-0.83-0.09-1.24-0.16c-1.45-0.26-2.89-0.54-4.34-0.78
		c-1.22-0.21-2.45-0.42-3.68-0.55c-1.86-0.18-3.7,0.02-5.52,0.4c-1.58,0.33-3.17,0.63-4.77,0.89c-1.29,0.21-2.58,0.23-3.84-0.19
		c-1.73-0.57-3.04-2.26-3.2-4.07c-0.12-1.42,0.29-2.7,0.96-3.92c0.75-1.38,1.72-2.6,2.93-3.59c2.42-1.98,4.4-4.34,6.15-6.92
		c0.78-1.14,1.65-2.22,2.72-3.12c1.33-1.11,2.85-1.56,4.58-1.47c1.9,0.1,3.24,1.09,4.29,2.55c0.49,0.68,0.92,1.4,1.32,2.14
		c1.16,2.14,2.65,4.05,4.27,5.85c0.95,1.05,2.01,2.01,2.93,3.09c1.23,1.44,1.95,3.11,1.9,5.04c-0.03,1.03-0.32,2-0.87,2.88
		c-0.74,1.19-1.82,1.8-3.21,1.9c-0.09,0.01-0.19,0.03-0.28,0.04C118.36,119.58,117.99,119.58,117.63,119.58z"/>
	<path class="st0" d="M129.06,98.11c-0.12,0.56-0.2,1.13-0.36,1.67c-0.55,1.79-1.54,3.3-3.04,4.44c-1.09,0.83-2.32,1.16-3.67,0.87
		c-0.92-0.19-1.59-0.76-2.11-1.52c-0.61-0.88-0.91-1.89-0.95-2.94c-0.12-2.95,0.9-5.43,3.15-7.37c0.64-0.55,1.37-0.95,2.2-1.11
		c1.73-0.33,3.16,0.33,4.05,1.86c0.39,0.67,0.66,1.39,0.71,2.18c0,0.05,0.02,0.1,0.03,0.15C129.06,96.94,129.06,97.53,129.06,98.11z
		"/>
	<path class="st0" d="M120.71,85.61c-0.05,2.41-0.64,4.44-1.94,6.25c-0.66,0.91-1.47,1.66-2.49,2.16c-1.87,0.92-3.86,0.56-5.28-0.97
		c-0.91-0.97-1.45-2.15-1.7-3.44c-0.57-3,0.02-5.76,1.86-8.22c0.6-0.8,1.34-1.44,2.23-1.9c1.93-1,4.07-0.6,5.51,1.03
		c0.96,1.09,1.47,2.38,1.68,3.8C120.65,84.82,120.68,85.31,120.71,85.61z"/>
	<path class="st0" d="M94.21,86.35c0.07-0.75,0.08-1.52,0.24-2.25c0.27-1.24,0.86-2.34,1.77-3.25c1.76-1.75,4.24-1.58,5.88-0.39
		c1.77,1.28,2.86,3.01,3.37,5.12c0.4,1.65,0.46,3.3,0,4.95c-0.27,0.97-0.69,1.87-1.35,2.65c-1.51,1.79-3.7,2.2-5.76,1.08
		c-1.03-0.56-1.84-1.36-2.49-2.33c-0.79-1.18-1.32-2.46-1.54-3.86c-0.09-0.56-0.06-1.14-0.08-1.72
		C94.24,86.35,94.23,86.35,94.21,86.35z"/>
	<path class="st0" d="M95.95,99.75c-0.01,1.33-0.11,2.28-0.54,3.17c-0.58,1.19-1.48,2.02-2.82,2.24c-1.19,0.2-2.27-0.13-3.23-0.83
		c-1.76-1.28-2.86-3.01-3.35-5.13c-0.32-1.4-0.34-2.79,0.13-4.16c0.36-1.04,0.95-1.91,1.95-2.44c1.11-0.59,2.25-0.54,3.38-0.04
		c1.32,0.59,2.31,1.57,3.08,2.76C95.48,96.77,95.97,98.37,95.95,99.75z"/>
</g>
<g>
	<path class="st0" d="M177.98,119.58c-0.41-0.05-0.83-0.09-1.24-0.16c-1.45-0.26-2.89-0.54-4.34-0.78
		c-1.22-0.21-2.45-0.42-3.68-0.55c-1.86-0.18-3.7,0.02-5.52,0.4c-1.58,0.33-3.17,0.63-4.77,0.89c-1.29,0.21-2.58,0.23-3.84-0.19
		c-1.73-0.57-3.04-2.26-3.2-4.07c-0.12-1.42,0.29-2.7,0.96-3.92c0.75-1.38,1.72-2.6,2.93-3.59c2.42-1.98,4.4-4.34,6.15-6.92
		c0.78-1.14,1.65-2.22,2.72-3.12c1.33-1.11,2.85-1.56,4.58-1.47c1.9,0.1,3.24,1.09,4.29,2.55c0.49,0.68,0.92,1.4,1.32,2.14
		c1.16,2.14,2.65,4.05,4.27,5.85c0.95,1.05,2.01,2.01,2.93,3.09c1.23,1.44,1.95,3.11,1.9,5.04c-0.03,1.03-0.32,2-0.87,2.88
		c-0.74,1.19-1.82,1.8-3.21,1.9c-0.09,0.01-0.19,0.03-0.28,0.04C178.71,119.58,178.35,119.58,177.98,119.58z"/>
	<path class="st0" d="M189.42,98.11c-0.12,0.56-0.2,1.13-0.36,1.67c-0.55,1.79-1.54,3.3-3.04,4.44c-1.09,0.83-2.32,1.16-3.67,0.87
		c-0.92-0.19-1.59-0.76-2.11-1.52c-0.61-0.88-0.91-1.89-0.95-2.94c-0.12-2.95,0.9-5.43,3.15-7.37c0.64-0.55,1.37-0.95,2.2-1.11
		c1.73-0.33,3.16,0.33,4.05,1.86c0.39,0.67,0.66,1.39,0.71,2.18c0,0.05,0.02,0.1,0.03,0.15C189.42,96.94,189.42,97.53,189.42,98.11z
		"/>
	<path class="st0" d="M181.06,85.61c-0.05,2.41-0.64,4.44-1.94,6.25c-0.66,0.91-1.47,1.66-2.49,2.16c-1.87,0.92-3.86,0.56-5.28-0.97
		c-0.91-0.97-1.45-2.15-1.7-3.44c-0.57-3,0.02-5.76,1.86-8.22c0.6-0.8,1.34-1.44,2.23-1.9c1.93-1,4.07-0.6,5.51,1.03
		c0.96,1.09,1.47,2.38,1.68,3.8C181.01,84.82,181.03,85.31,181.06,85.61z"/>
	<path class="st0" d="M154.57,86.35c0.07-0.75,0.08-1.52,0.24-2.25c0.27-1.24,0.86-2.34,1.77-3.25c1.76-1.75,4.24-1.58,5.88-0.39
		c1.77,1.28,2.86,3.01,3.37,5.12c0.4,1.65,0.46,3.3,0,4.95c-0.27,0.97-0.69,1.87-1.35,2.65c-1.51,1.79-3.7,2.2-5.76,1.08
		c-1.03-0.56-1.84-1.36-2.49-2.33c-0.79-1.18-1.32-2.46-1.54-3.86c-0.09-0.56-0.06-1.14-0.08-1.72
		C154.59,86.35,154.58,86.35,154.57,86.35z"/>
	<path class="st0" d="M156.3,99.75c-0.01,1.33-0.11,2.28-0.54,3.17c-0.58,1.19-1.48,2.02-2.82,2.24c-1.19,0.2-2.27-0.13-3.23-0.83
		c-1.76-1.28-2.86-3.01-3.35-5.13c-0.32-1.4-0.34-2.79,0.13-4.16c0.36-1.04,0.95-1.91,1.95-2.44c1.11-0.59,2.25-0.54,3.38-0.04
		c1.32,0.59,2.31,1.57,3.08,2.76C155.83,96.77,156.32,98.37,156.3,99.75z"/>
</g>
<g>
	<path class="st0" d="M238.33,119.58c-0.41-0.05-0.83-0.09-1.24-0.16c-1.45-0.26-2.89-0.54-4.34-0.78
		c-1.22-0.21-2.45-0.42-3.68-0.55c-1.86-0.18-3.7,0.02-5.52,0.4c-1.58,0.33-3.17,0.63-4.77,0.89c-1.29,0.21-2.58,0.23-3.84-0.19
		c-1.73-0.57-3.04-2.26-3.2-4.07c-0.12-1.42,0.29-2.7,0.96-3.92c0.75-1.38,1.72-2.6,2.93-3.59c2.42-1.98,4.4-4.34,6.15-6.92
		c0.78-1.14,1.65-2.22,2.72-3.12c1.33-1.11,2.85-1.56,4.58-1.47c1.9,0.1,3.24,1.09,4.29,2.55c0.49,0.68,0.92,1.4,1.32,2.14
		c1.16,2.14,2.65,4.05,4.27,5.85c0.95,1.05,2.01,2.01,2.93,3.09c1.23,1.44,1.95,3.11,1.9,5.04c-0.03,1.03-0.32,2-0.87,2.88
		c-0.74,1.19-1.82,1.8-3.21,1.9c-0.09,0.01-0.19,0.03-0.28,0.04C239.07,119.58,238.7,119.58,238.33,119.58z"/>
	<path class="st0" d="M249.77,98.11c-0.12,0.56-0.2,1.13-0.36,1.67c-0.55,1.79-1.54,3.3-3.04,4.44c-1.09,0.83-2.32,1.16-3.67,0.87
		c-0.92-0.19-1.59-0.76-2.11-1.52c-0.61-0.88-0.91-1.89-0.95-2.94c-0.12-2.95,0.9-5.43,3.15-7.37c0.64-0.55,1.37-0.95,2.2-1.11
		c1.73-0.33,3.16,0.33,4.05,1.86c0.39,0.67,0.66,1.39,0.71,2.18c0,0.05,0.02,0.1,0.03,0.15C249.77,96.94,249.77,97.53,249.77,98.11z
		"/>
	<path class="st0" d="M241.41,85.61c-0.05,2.41-0.64,4.44-1.94,6.25c-0.66,0.91-1.47,1.66-2.49,2.16c-1.87,0.92-3.86,0.56-5.28-0.97
		c-0.91-0.97-1.45-2.15-1.7-3.44c-0.57-3,0.02-5.76,1.86-8.22c0.6-0.8,1.34-1.44,2.23-1.9c1.93-1,4.07-0.6,5.51,1.03
		c0.96,1.09,1.47,2.38,1.68,3.8C241.36,84.82,241.38,85.31,241.41,85.61z"/>
	<path class="st0" d="M214.92,86.35c0.07-0.75,0.08-1.52,0.24-2.25c0.27-1.24,0.86-2.34,1.77-3.25c1.76-1.75,4.24-1.58,5.88-0.39
		c1.77,1.28,2.86,3.01,3.37,5.12c0.4,1.65,0.46,3.3,0,4.95c-0.27,0.97-0.69,1.87-1.35,2.65c-1.51,1.79-3.7,2.2-5.76,1.08
		c-1.03-0.56-1.84-1.36-2.49-2.33c-0.79-1.18-1.32-2.46-1.54-3.86c-0.09-0.56-0.06-1.14-0.08-1.72
		C214.95,86.35,214.93,86.35,214.92,86.35z"/>
	<path class="st0" d="M216.65,99.75c-0.01,1.33-0.11,2.28-0.54,3.17c-0.58,1.19-1.48,2.02-2.82,2.24c-1.19,0.2-2.27-0.13-3.23-0.83
		c-1.76-1.28-2.86-3.01-3.35-5.13c-0.32-1.4-0.34-2.79,0.13-4.16c0.36-1.04,0.95-1.91,1.95-2.44c1.11-0.59,2.25-0.54,3.38-0.04
		c1.32,0.59,2.31,1.57,3.08,2.76C216.19,96.77,216.67,98.37,216.65,99.75z"/>
</g>
<g>
	<path class="st0" d="M298.68,119.58c-0.41-0.05-0.83-0.09-1.24-0.16c-1.45-0.26-2.89-0.54-4.34-0.78
		c-1.22-0.21-2.45-0.42-3.68-0.55c-1.86-0.18-3.7,0.02-5.52,0.4c-1.58,0.33-3.17,0.63-4.77,0.89c-1.29,0.21-2.58,0.23-3.84-0.19
		c-1.73-0.57-3.04-2.26-3.2-4.07c-0.12-1.42,0.29-2.7,0.96-3.92c0.75-1.38,1.72-2.6,2.93-3.59c2.42-1.98,4.4-4.34,6.15-6.92
		c0.78-1.14,1.65-2.22,2.72-3.12c1.33-1.11,2.85-1.56,4.58-1.47c1.9,0.1,3.24,1.09,4.29,2.55c0.49,0.68,0.92,1.4,1.32,2.14
		c1.16,2.14,2.65,4.05,4.27,5.85c0.95,1.05,2.01,2.01,2.93,3.09c1.23,1.44,1.95,3.11,1.9,5.04c-0.03,1.03-0.32,2-0.87,2.88
		c-0.74,1.19-1.82,1.8-3.21,1.9c-0.09,0.01-0.19,0.03-0.28,0.04C299.42,119.58,299.05,119.58,298.68,119.58z"/>
	<path class="st0" d="M310.12,98.11c-0.12,0.56-0.2,1.13-0.36,1.67c-0.55,1.79-1.54,3.3-3.04,4.44c-1.09,0.83-2.32,1.16-3.67,0.87
		c-0.92-0.19-1.59-0.76-2.11-1.52c-0.61-0.88-0.91-1.89-0.95-2.94c-0.12-2.95,0.9-5.43,3.15-7.37c0.64-0.55,1.37-0.95,2.2-1.11
		c1.73-0.33,3.16,0.33,4.05,1.86c0.39,0.67,0.66,1.39,0.71,2.18c0,0.05,0.02,0.1,0.03,0.15C310.12,96.94,310.12,97.53,310.12,98.11z
		"/>
	<path class="st0" d="M301.76,85.61c-0.05,2.41-0.64,4.44-1.94,6.25c-0.66,0.91-1.47,1.66-2.49,2.16c-1.87,0.92-3.86,0.56-5.28-0.97
		c-0.91-0.97-1.45-2.15-1.7-3.44c-0.57-3,0.02-5.76,1.86-8.22c0.6-0.8,1.34-1.44,2.23-1.9c1.93-1,4.07-0.6,5.51,1.03
		c0.96,1.09,1.47,2.38,1.68,3.8C301.71,84.82,301.74,85.31,301.76,85.61z"/>
	<path class="st0" d="M275.27,86.35c0.07-0.75,0.08-1.52,0.24-2.25c0.27-1.24,0.86-2.34,1.77-3.25c1.76-1.75,4.24-1.58,5.88-0.39
		c1.77,1.28,2.86,3.01,3.37,5.12c0.4,1.65,0.46,3.3,0,4.95c-0.27,0.97-0.69,1.87-1.35,2.65c-1.51,1.79-3.7,2.2-5.76,1.08
		c-1.03-0.56-1.84-1.36-2.49-2.33c-0.79-1.18-1.32-2.46-1.54-3.86c-0.09-0.56-0.06-1.14-0.08-1.72
		C275.3,86.35,275.29,86.35,275.27,86.35z"/>
	<path class="st0" d="M277,99.75c-0.01,1.33-0.11,2.28-0.54,3.17c-0.58,1.19-1.48,2.02-2.82,2.24c-1.19,0.2-2.27-0.13-3.23-0.83
		c-1.76-1.28-2.86-3.01-3.35-5.13c-0.32-1.4-0.34-2.79,0.13-4.16c0.36-1.04,0.95-1.91,1.95-2.44c1.11-0.59,2.25-0.54,3.38-0.04
		c1.32,0.59,2.31,1.57,3.08,2.76C276.54,96.77,277.03,98.37,277,99.75z"/>
</g>
<g>
	<path class="st0" d="M359.04,119.58c-0.41-0.05-0.83-0.09-1.24-0.16c-1.45-0.26-2.89-0.54-4.34-0.78
		c-1.22-0.21-2.45-0.42-3.68-0.55c-1.86-0.18-3.7,0.02-5.52,0.4c-1.58,0.33-3.17,0.63-4.77,0.89c-1.29,0.21-2.58,0.23-3.84-0.19
		c-1.73-0.57-3.04-2.26-3.2-4.07c-0.12-1.42,0.29-2.7,0.96-3.92c0.75-1.38,1.72-2.6,2.93-3.59c2.42-1.98,4.4-4.34,6.15-6.92
		c0.78-1.14,1.65-2.22,2.72-3.12c1.33-1.11,2.85-1.56,4.58-1.47c1.9,0.1,3.24,1.09,4.29,2.55c0.49,0.68,0.92,1.4,1.32,2.14
		c1.16,2.14,2.65,4.05,4.27,5.85c0.95,1.05,2.01,2.01,2.93,3.09c1.23,1.44,1.95,3.11,1.9,5.04c-0.03,1.03-0.32,2-0.87,2.88
		c-0.74,1.19-1.82,1.8-3.21,1.9c-0.09,0.01-0.19,0.03-0.28,0.04C359.77,119.58,359.4,119.58,359.04,119.58z"/>
	<path class="st0" d="M370.47,98.11c-0.12,0.56-0.2,1.13-0.36,1.67c-0.55,1.79-1.54,3.3-3.04,4.44c-1.09,0.83-2.32,1.16-3.67,0.87
		c-0.92-0.19-1.59-0.76-2.11-1.52c-0.61-0.88-0.91-1.89-0.95-2.94c-0.12-2.95,0.9-5.43,3.15-7.37c0.64-0.55,1.37-0.95,2.2-1.11
		c1.73-0.33,3.16,0.33,4.05,1.86c0.39,0.67,0.66,1.39,0.71,2.18c0,0.05,0.02,0.1,0.03,0.15C370.47,96.94,370.47,97.53,370.47,98.11z
		"/>
	<path class="st0" d="M362.12,85.61c-0.05,2.41-0.64,4.44-1.94,6.25c-0.66,0.91-1.47,1.66-2.49,2.16c-1.87,0.92-3.86,0.56-5.28-0.97
		c-0.91-0.97-1.45-2.15-1.7-3.44c-0.57-3,0.02-5.76,1.86-8.22c0.6-0.8,1.34-1.44,2.23-1.9c1.93-1,4.07-0.6,5.51,1.03
		c0.96,1.09,1.47,2.38,1.68,3.8C362.07,84.82,362.09,85.31,362.12,85.61z"/>
	<path class="st0" d="M335.62,86.35c0.07-0.75,0.08-1.52,0.24-2.25c0.27-1.24,0.86-2.34,1.77-3.25c1.76-1.75,4.24-1.58,5.88-0.39
		c1.77,1.28,2.86,3.01,3.37,5.12c0.4,1.65,0.46,3.3,0,4.95c-0.27,0.97-0.69,1.87-1.35,2.65c-1.51,1.79-3.7,2.2-5.76,1.08
		c-1.03-0.56-1.84-1.36-2.49-2.33c-0.79-1.18-1.32-2.46-1.54-3.86c-0.09-0.56-0.06-1.14-0.08-1.72
		C335.65,86.35,335.64,86.35,335.62,86.35z"/>
	<path class="st0" d="M337.36,99.75c-0.01,1.33-0.11,2.28-0.54,3.17c-0.58,1.19-1.48,2.02-2.82,2.24c-1.19,0.2-2.27-0.13-3.23-0.83
		c-1.76-1.28-2.86-3.01-3.35-5.13c-0.32-1.4-0.34-2.79,0.13-4.16c0.36-1.04,0.95-1.91,1.95-2.44c1.11-0.59,2.25-0.54,3.38-0.04
		c1.32,0.59,2.31,1.57,3.08,2.76C336.89,96.77,337.38,98.37,337.36,99.75z"/>
</g>
<g>
	<path class="st0" d="M419.39,119.58c-0.41-0.05-0.83-0.09-1.24-0.16c-1.45-0.26-2.89-0.54-4.34-0.78
		c-1.22-0.21-2.45-0.42-3.68-0.55c-1.86-0.18-3.7,0.02-5.52,0.4c-1.58,0.33-3.17,0.63-4.77,0.89c-1.29,0.21-2.58,0.23-3.84-0.19
		c-1.73-0.57-3.04-2.26-3.2-4.07c-0.12-1.42,0.29-2.7,0.96-3.92c0.75-1.38,1.72-2.6,2.93-3.59c2.42-1.98,4.4-4.34,6.15-6.92
		c0.78-1.14,1.65-2.22,2.72-3.12c1.33-1.11,2.85-1.56,4.58-1.47c1.9,0.1,3.24,1.09,4.29,2.55c0.49,0.68,0.92,1.4,1.32,2.14
		c1.16,2.14,2.65,4.05,4.27,5.85c0.95,1.05,2.01,2.01,2.93,3.09c1.23,1.44,1.95,3.11,1.9,5.04c-0.03,1.03-0.32,2-0.87,2.88
		c-0.74,1.19-1.82,1.8-3.21,1.9c-0.09,0.01-0.19,0.03-0.28,0.04C420.12,119.58,419.76,119.58,419.39,119.58z"/>
	<path class="st0" d="M430.83,98.11c-0.12,0.56-0.2,1.13-0.36,1.67c-0.55,1.79-1.54,3.3-3.04,4.44c-1.09,0.83-2.32,1.16-3.67,0.87
		c-0.92-0.19-1.59-0.76-2.11-1.52c-0.61-0.88-0.91-1.89-0.95-2.94c-0.12-2.95,0.9-5.43,3.15-7.37c0.64-0.55,1.37-0.95,2.2-1.11
		c1.73-0.33,3.16,0.33,4.05,1.86c0.39,0.67,0.66,1.39,0.71,2.18c0,0.05,0.02,0.1,0.03,0.15C430.83,96.94,430.83,97.53,430.83,98.11z
		"/>
	<path class="st0" d="M422.47,85.61c-0.05,2.41-0.64,4.44-1.94,6.25c-0.66,0.91-1.47,1.66-2.49,2.16c-1.87,0.92-3.86,0.56-5.28-0.97
		c-0.91-0.97-1.45-2.15-1.7-3.44c-0.57-3,0.02-5.76,1.86-8.22c0.6-0.8,1.34-1.44,2.23-1.9c1.93-1,4.07-0.6,5.51,1.03
		c0.96,1.09,1.47,2.38,1.68,3.8C422.42,84.82,422.44,85.31,422.47,85.61z"/>
	<path class="st0" d="M395.98,86.35c0.07-0.75,0.08-1.52,0.24-2.25c0.27-1.24,0.86-2.34,1.77-3.25c1.76-1.75,4.24-1.58,5.88-0.39
		c1.77,1.28,2.86,3.01,3.37,5.12c0.4,1.65,0.46,3.3,0,4.95c-0.27,0.97-0.69,1.87-1.35,2.65c-1.51,1.79-3.7,2.2-5.76,1.08
		c-1.03-0.56-1.84-1.36-2.49-2.33c-0.79-1.18-1.32-2.46-1.54-3.86c-0.09-0.56-0.06-1.14-0.08-1.72
		C396,86.35,395.99,86.35,395.98,86.35z"/>
	<path class="st0" d="M397.71,99.75c-0.01,1.33-0.11,2.28-0.54,3.17c-0.58,1.19-1.48,2.02-2.82,2.24c-1.19,0.2-2.27-0.13-3.23-0.83
		c-1.76-1.28-2.86-3.01-3.35-5.13c-0.32-1.4-0.34-2.79,0.13-4.16c0.36-1.04,0.95-1.91,1.95-2.44c1.11-0.59,2.25-0.54,3.38-0.04
		c1.32,0.59,2.31,1.57,3.08,2.76C397.24,96.77,397.73,98.37,397.71,99.75z"/>
</g>
<g>
	<path class="st0" d="M479.74,119.58c-0.41-0.05-0.83-0.09-1.24-0.16c-1.45-0.26-2.89-0.54-4.34-0.78
		c-1.22-0.21-2.45-0.42-3.68-0.55c-1.86-0.18-3.7,0.02-5.52,0.4c-1.58,0.33-3.17,0.63-4.77,0.89c-1.29,0.21-2.58,0.23-3.84-0.19
		c-1.73-0.57-3.04-2.26-3.2-4.07c-0.12-1.42,0.29-2.7,0.96-3.92c0.75-1.38,1.72-2.6,2.93-3.59c2.42-1.98,4.4-4.34,6.15-6.92
		c0.78-1.14,1.65-2.22,2.72-3.12c1.33-1.11,2.85-1.56,4.58-1.47c1.9,0.1,3.24,1.09,4.29,2.55c0.49,0.68,0.92,1.4,1.32,2.14
		c1.16,2.14,2.65,4.05,4.27,5.85c0.95,1.05,2.01,2.01,2.93,3.09c1.23,1.44,1.95,3.11,1.9,5.04c-0.03,1.03-0.32,2-0.87,2.88
		c-0.74,1.19-1.82,1.8-3.21,1.9c-0.09,0.01-0.19,0.03-0.28,0.04C480.48,119.58,480.11,119.58,479.74,119.58z"/>
	<path class="st0" d="M491.18,98.11c-0.12,0.56-0.2,1.13-0.36,1.67c-0.55,1.79-1.54,3.3-3.04,4.44c-1.09,0.83-2.32,1.16-3.67,0.87
		c-0.92-0.19-1.59-0.76-2.11-1.52c-0.61-0.88-0.91-1.89-0.95-2.94c-0.12-2.95,0.9-5.43,3.15-7.37c0.64-0.55,1.37-0.95,2.2-1.11
		c1.73-0.33,3.16,0.33,4.05,1.86c0.39,0.67,0.66,1.39,0.71,2.18c0,0.05,0.02,0.1,0.03,0.15C491.18,96.94,491.18,97.53,491.18,98.11z
		"/>
	<path class="st0" d="M482.82,85.61c-0.05,2.41-0.64,4.44-1.94,6.25c-0.66,0.91-1.47,1.66-2.49,2.16c-1.87,0.92-3.86,0.56-5.28-0.97
		c-0.91-0.97-1.45-2.15-1.7-3.44c-0.57-3,0.02-5.76,1.86-8.22c0.6-0.8,1.34-1.44,2.23-1.9c1.93-1,4.07-0.6,5.51,1.03
		c0.96,1.09,1.47,2.38,1.68,3.8C482.77,84.82,482.79,85.31,482.82,85.61z"/>
	<path class="st0" d="M456.33,86.35c0.07-0.75,0.08-1.52,0.24-2.25c0.27-1.24,0.86-2.34,1.77-3.25c1.76-1.75,4.24-1.58,5.88-0.39
		c1.77,1.28,2.86,3.01,3.37,5.12c0.4,1.65,0.46,3.3,0,4.95c-0.27,0.97-0.69,1.87-1.35,2.65c-1.51,1.79-3.7,2.2-5.76,1.08
		c-1.03-0.56-1.84-1.36-2.49-2.33c-0.79-1.18-1.32-2.46-1.54-3.86c-0.09-0.56-0.06-1.14-0.08-1.72
		C456.36,86.35,456.34,86.35,456.33,86.35z"/>
	<path class="st0" d="M458.06,99.75c-0.01,1.33-0.11,2.28-0.54,3.17c-0.58,1.19-1.48,2.02-2.82,2.24c-1.19,0.2-2.27-0.13-3.23-0.83
		c-1.76-1.28-2.86-3.01-3.35-5.13c-0.32-1.4-0.34-2.79,0.13-4.16c0.36-1.04,0.95-1.91,1.95-2.44c1.11-0.59,2.25-0.54,3.38-0.04
		c1.32,0.59,2.31,1.57,3.08,2.76C457.6,96.77,458.08,98.37,458.06,99.75z"/>
</g>
<g>
	<path class="st0" d="M540.09,119.58c-0.41-0.05-0.83-0.09-1.24-0.16c-1.45-0.26-2.89-0.54-4.34-0.78
		c-1.22-0.21-2.45-0.42-3.68-0.55c-1.86-0.18-3.7,0.02-5.52,0.4c-1.58,0.33-3.17,0.63-4.77,0.89c-1.29,0.21-2.58,0.23-3.84-0.19
		c-1.73-0.57-3.04-2.26-3.2-4.07c-0.12-1.42,0.29-2.7,0.96-3.92c0.75-1.38,1.72-2.6,2.93-3.59c2.42-1.98,4.4-4.34,6.15-6.92
		c0.78-1.14,1.65-2.22,2.72-3.12c1.33-1.11,2.85-1.56,4.58-1.47c1.9,0.1,3.24,1.09,4.29,2.55c0.49,0.68,0.92,1.4,1.32,2.14
		c1.16,2.14,2.65,4.05,4.27,5.85c0.95,1.05,2.01,2.01,2.93,3.09c1.23,1.44,1.95,3.11,1.9,5.04c-0.03,1.03-0.32,2-0.87,2.88
		c-0.74,1.19-1.82,1.8-3.21,1.9c-0.09,0.01-0.19,0.03-0.28,0.04C540.83,119.58,540.46,119.58,540.09,119.58z"/>
	<path class="st0" d="M551.53,98.11c-0.12,0.56-0.2,1.13-0.36,1.67c-0.55,1.79-1.54,3.3-3.04,4.44c-1.09,0.83-2.32,1.16-3.67,0.87
		c-0.92-0.19-1.59-0.76-2.11-1.52c-0.61-0.88-0.91-1.89-0.95-2.94c-0.12-2.95,0.9-5.43,3.15-7.37c0.64-0.55,1.37-0.95,2.2-1.11
		c1.73-0.33,3.16,0.33,4.05,1.86c0.39,0.67,0.66,1.39,0.71,2.18c0,0.05,0.02,0.1,0.03,0.15C551.53,96.94,551.53,97.53,551.53,98.11z
		"/>
	<path class="st0" d="M543.17,85.61c-0.05,2.41-0.64,4.44-1.94,6.25c-0.66,0.91-1.47,1.66-2.49,2.16c-1.87,0.92-3.86,0.56-5.28-0.97
		c-0.91-0.97-1.45-2.15-1.7-3.44c-0.57-3,0.02-5.76,1.86-8.22c0.6-0.8,1.34-1.44,2.23-1.9c1.93-1,4.07-0.6,5.51,1.03
		c0.96,1.09,1.47,2.38,1.68,3.8C543.12,84.82,543.15,85.31,543.17,85.61z"/>
	<path class="st0" d="M516.68,86.35c0.07-0.75,0.08-1.52,0.24-2.25c0.27-1.24,0.86-2.34,1.77-3.25c1.76-1.75,4.24-1.58,5.88-0.39
		c1.77,1.28,2.86,3.01,3.37,5.12c0.4,1.65,0.46,3.3,0,4.95c-0.27,0.97-0.69,1.87-1.35,2.65c-1.51,1.79-3.7,2.2-5.76,1.08
		c-1.03-0.56-1.84-1.36-2.49-2.33c-0.79-1.18-1.32-2.46-1.54-3.86c-0.09-0.56-0.06-1.14-0.08-1.72
		C516.71,86.35,516.7,86.35,516.68,86.35z"/>
	<path class="st0" d="M518.41,99.75c-0.01,1.33-0.11,2.28-0.54,3.17c-0.58,1.19-1.48,2.02-2.82,2.24c-1.19,0.2-2.27-0.13-3.23-0.83
		c-1.76-1.28-2.86-3.01-3.35-5.13c-0.32-1.4-0.34-2.79,0.13-4.16c0.36-1.04,0.95-1.91,1.95-2.44c1.11-0.59,2.25-0.54,3.38-0.04
		c1.32,0.59,2.31,1.57,3.08,2.76C517.95,96.77,518.44,98.37,518.41,99.75z"/>
</g>
<g>
	<path class="st0" d="M600.45,119.58c-0.41-0.05-0.83-0.09-1.24-0.16c-1.45-0.26-2.89-0.54-4.34-0.78
		c-1.22-0.21-2.45-0.42-3.68-0.55c-1.86-0.18-3.7,0.02-5.52,0.4c-1.58,0.33-3.17,0.63-4.77,0.89c-1.29,0.21-2.58,0.23-3.84-0.19
		c-1.73-0.57-3.04-2.26-3.2-4.07c-0.12-1.42,0.29-2.7,0.96-3.92c0.75-1.38,1.72-2.6,2.93-3.59c2.42-1.98,4.4-4.34,6.15-6.92
		c0.78-1.14,1.65-2.22,2.72-3.12c1.33-1.11,2.85-1.56,4.58-1.47c1.9,0.1,3.24,1.09,4.29,2.55c0.49,0.68,0.92,1.4,1.32,2.14
		c1.16,2.14,2.65,4.05,4.27,5.85c0.95,1.05,2.01,2.01,2.93,3.09c1.23,1.44,1.95,3.11,1.9,5.04c-0.03,1.03-0.32,2-0.87,2.88
		c-0.74,1.19-1.82,1.8-3.21,1.9c-0.09,0.01-0.19,0.03-0.28,0.04C601.18,119.58,600.81,119.58,600.45,119.58z"/>
	<path class="st0" d="M611.88,98.11c-0.12,0.56-0.2,1.13-0.36,1.67c-0.55,1.79-1.54,3.3-3.04,4.44c-1.09,0.83-2.32,1.16-3.67,0.87
		c-0.92-0.19-1.59-0.76-2.11-1.52c-0.61-0.88-0.91-1.89-0.95-2.94c-0.12-2.95,0.9-5.43,3.15-7.37c0.64-0.55,1.37-0.95,2.2-1.11
		c1.73-0.33,3.16,0.33,4.05,1.86c0.39,0.67,0.66,1.39,0.71,2.18c0,0.05,0.02,0.1,0.03,0.15C611.88,96.94,611.88,97.53,611.88,98.11z
		"/>
	<path class="st0" d="M603.53,85.61c-0.05,2.41-0.64,4.44-1.94,6.25c-0.66,0.91-1.47,1.66-2.49,2.16c-1.87,0.92-3.86,0.56-5.28-0.97
		c-0.91-0.97-1.45-2.15-1.7-3.44c-0.57-3,0.02-5.76,1.86-8.22c0.6-0.8,1.34-1.44,2.23-1.9c1.93-1,4.07-0.6,5.51,1.03
		c0.96,1.09,1.47,2.38,1.68,3.8C603.48,84.82,603.5,85.31,603.53,85.61z"/>
	<path class="st0" d="M577.04,86.35c0.07-0.75,0.08-1.52,0.24-2.25c0.27-1.24,0.86-2.34,1.77-3.25c1.76-1.75,4.24-1.58,5.88-0.39
		c1.77,1.28,2.86,3.01,3.37,5.12c0.4,1.65,0.46,3.3,0,4.95c-0.27,0.97-0.69,1.87-1.35,2.65c-1.51,1.79-3.7,2.2-5.76,1.08
		c-1.03-0.56-1.84-1.36-2.49-2.33c-0.79-1.18-1.32-2.46-1.54-3.86c-0.09-0.56-0.06-1.14-0.08-1.72
		C577.06,86.35,577.05,86.35,577.04,86.35z"/>
	<path class="st0" d="M578.77,99.75c-0.01,1.33-0.11,2.28-0.54,3.17c-0.58,1.19-1.48,2.02-2.82,2.24c-1.19,0.2-2.27-0.13-3.23-0.83
		c-1.76-1.28-2.86-3.01-3.35-5.13c-0.32-1.4-0.34-2.79,0.13-4.16c0.36-1.04,0.95-1.91,1.95-2.44c1.11-0.59,2.25-0.54,3.38-0.04
		c1.32,0.59,2.31,1.57,3.08,2.76C578.3,96.77,578.79,98.37,578.77,99.75z"/>
</g>
<g>
	<path class="st0" d="M660.8,119.58c-0.41-0.05-0.83-0.09-1.24-0.16c-1.45-0.26-2.89-0.54-4.34-0.78c-1.22-0.21-2.45-0.42-3.68-0.55
		c-1.86-0.18-3.7,0.02-5.52,0.4c-1.58,0.33-3.17,0.63-4.77,0.89c-1.29,0.21-2.58,0.23-3.84-0.19c-1.73-0.57-3.04-2.26-3.2-4.07
		c-0.12-1.42,0.29-2.7,0.96-3.92c0.75-1.38,1.72-2.6,2.93-3.59c2.42-1.98,4.4-4.34,6.15-6.92c0.78-1.14,1.65-2.22,2.72-3.12
		c1.33-1.11,2.85-1.56,4.58-1.47c1.9,0.1,3.24,1.09,4.29,2.55c0.49,0.68,0.92,1.4,1.32,2.14c1.16,2.14,2.65,4.05,4.27,5.85
		c0.95,1.05,2.01,2.01,2.93,3.09c1.23,1.44,1.95,3.11,1.9,5.04c-0.03,1.03-0.32,2-0.87,2.88c-0.74,1.19-1.82,1.8-3.21,1.9
		c-0.09,0.01-0.19,0.03-0.28,0.04C661.53,119.58,661.17,119.58,660.8,119.58z"/>
	<path class="st0" d="M672.24,98.11c-0.12,0.56-0.2,1.13-0.36,1.67c-0.55,1.79-1.54,3.3-3.04,4.44c-1.09,0.83-2.32,1.16-3.67,0.87
		c-0.92-0.19-1.59-0.76-2.11-1.52c-0.61-0.88-0.91-1.89-0.95-2.94c-0.12-2.95,0.9-5.43,3.15-7.37c0.64-0.55,1.37-0.95,2.2-1.11
		c1.73-0.33,3.16,0.33,4.05,1.86c0.39,0.67,0.66,1.39,0.71,2.18c0,0.05,0.02,0.1,0.03,0.15C672.24,96.94,672.24,97.53,672.24,98.11z
		"/>
	<path class="st0" d="M663.88,85.61c-0.05,2.41-0.64,4.44-1.94,6.25c-0.66,0.91-1.47,1.66-2.49,2.16c-1.87,0.92-3.86,0.56-5.28-0.97
		c-0.91-0.97-1.45-2.15-1.7-3.44c-0.57-3,0.02-5.76,1.86-8.22c0.6-0.8,1.34-1.44,2.23-1.9c1.93-1,4.07-0.6,5.51,1.03
		c0.96,1.09,1.47,2.38,1.68,3.8C663.83,84.82,663.85,85.31,663.88,85.61z"/>
	<path class="st0" d="M637.39,86.35c0.07-0.75,0.08-1.52,0.24-2.25c0.27-1.24,0.86-2.34,1.77-3.25c1.76-1.75,4.24-1.58,5.88-0.39
		c1.77,1.28,2.86,3.01,3.37,5.12c0.4,1.65,0.46,3.3,0,4.95c-0.27,0.97-0.69,1.87-1.35,2.65c-1.51,1.79-3.7,2.2-5.76,1.08
		c-1.03-0.56-1.84-1.36-2.49-2.33c-0.79-1.18-1.32-2.46-1.54-3.86c-0.09-0.56-0.06-1.14-0.08-1.72
		C637.42,86.35,637.4,86.35,637.39,86.35z"/>
	<path class="st0" d="M639.12,99.75c-0.01,1.33-0.11,2.28-0.54,3.17c-0.58,1.19-1.48,2.02-2.82,2.24c-1.19,0.2-2.27-0.13-3.23-0.83
		c-1.76-1.28-2.86-3.01-3.35-5.13c-0.32-1.4-0.34-2.79,0.13-4.16c0.36-1.04,0.95-1.91,1.95-2.44c1.11-0.59,2.25-0.54,3.38-0.04
		c1.32,0.59,2.31,1.57,3.08,2.76C638.65,96.77,639.14,98.37,639.12,99.75z"/>
</g>
<g>
	<path class="st0" d="M721.15,119.58c-0.41-0.05-0.83-0.09-1.24-0.16c-1.45-0.26-2.89-0.54-4.34-0.78
		c-1.22-0.21-2.45-0.42-3.68-0.55c-1.86-0.18-3.7,0.02-5.52,0.4c-1.58,0.33-3.17,0.63-4.77,0.89c-1.29,0.21-2.58,0.23-3.84-0.19
		c-1.73-0.57-3.04-2.26-3.2-4.07c-0.12-1.42,0.29-2.7,0.96-3.92c0.75-1.38,1.72-2.6,2.93-3.59c2.42-1.98,4.4-4.34,6.15-6.92
		c0.78-1.14,1.65-2.22,2.72-3.12c1.33-1.11,2.85-1.56,4.58-1.47c1.9,0.1,3.24,1.09,4.29,2.55c0.49,0.68,0.92,1.4,1.32,2.14
		c1.16,2.14,2.65,4.05,4.27,5.85c0.95,1.05,2.01,2.01,2.93,3.09c1.23,1.44,1.95,3.11,1.9,5.04c-0.03,1.03-0.32,2-0.87,2.88
		c-0.74,1.19-1.82,1.8-3.21,1.9c-0.09,0.01-0.19,0.03-0.28,0.04C721.89,119.58,721.52,119.58,721.15,119.58z"/>
	<path class="st0" d="M732.59,98.11c-0.12,0.56-0.2,1.13-0.36,1.67c-0.55,1.79-1.54,3.3-3.04,4.44c-1.09,0.83-2.32,1.16-3.67,0.87
		c-0.92-0.19-1.59-0.76-2.11-1.52c-0.61-0.88-0.91-1.89-0.95-2.94c-0.12-2.95,0.9-5.43,3.15-7.37c0.64-0.55,1.37-0.95,2.2-1.11
		c1.73-0.33,3.16,0.33,4.05,1.86c0.39,0.67,0.66,1.39,0.71,2.18c0,0.05,0.02,0.1,0.03,0.15C732.59,96.94,732.59,97.53,732.59,98.11z
		"/>
	<path class="st0" d="M724.23,85.61c-0.05,2.41-0.64,4.44-1.94,6.25c-0.66,0.91-1.47,1.66-2.49,2.16c-1.87,0.92-3.86,0.56-5.28-0.97
		c-0.91-0.97-1.45-2.15-1.7-3.44c-0.57-3,0.02-5.76,1.86-8.22c0.6-0.8,1.34-1.44,2.23-1.9c1.93-1,4.07-0.6,5.51,1.03
		c0.96,1.09,1.47,2.38,1.68,3.8C724.18,84.82,724.2,85.31,724.23,85.61z"/>
	<path class="st0" d="M697.74,86.35c0.07-0.75,0.08-1.52,0.24-2.25c0.27-1.24,0.86-2.34,1.77-3.25c1.76-1.75,4.24-1.58,5.88-0.39
		c1.77,1.28,2.86,3.01,3.37,5.12c0.4,1.65,0.46,3.3,0,4.95c-0.27,0.97-0.69,1.87-1.35,2.65c-1.51,1.79-3.7,2.2-5.76,1.08
		c-1.03-0.56-1.84-1.36-2.49-2.33c-0.79-1.18-1.32-2.46-1.54-3.86c-0.09-0.56-0.06-1.14-0.08-1.72
		C697.77,86.35,697.75,86.35,697.74,86.35z"/>
	<path class="st0" d="M699.47,99.75c-0.01,1.33-0.11,2.28-0.54,3.17c-0.58,1.19-1.48,2.02-2.82,2.24c-1.19,0.2-2.27-0.13-3.23-0.83
		c-1.76-1.28-2.86-3.01-3.35-5.13c-0.32-1.4-0.34-2.79,0.13-4.16c0.36-1.04,0.95-1.91,1.95-2.44c1.11-0.59,2.25-0.54,3.38-0.04
		c1.32,0.59,2.31,1.57,3.08,2.76C699.01,96.77,699.5,98.37,699.47,99.75z"/>
</g>
<g>
	<path class="st0" d="M781.5,119.58c-0.41-0.05-0.83-0.09-1.24-0.16c-1.45-0.26-2.89-0.54-4.34-0.78c-1.22-0.21-2.45-0.42-3.68-0.55
		c-1.86-0.18-3.7,0.02-5.52,0.4c-1.58,0.33-3.17,0.63-4.77,0.89c-1.29,0.21-2.58,0.23-3.84-0.19c-1.73-0.57-3.04-2.26-3.2-4.07
		c-0.12-1.42,0.29-2.7,0.96-3.92c0.75-1.38,1.72-2.6,2.93-3.59c2.42-1.98,4.4-4.34,6.15-6.92c0.78-1.14,1.65-2.22,2.72-3.12
		c1.33-1.11,2.85-1.56,4.58-1.47c1.9,0.1,3.24,1.09,4.29,2.55c0.49,0.68,0.92,1.4,1.32,2.14c1.16,2.14,2.65,4.05,4.27,5.85
		c0.95,1.05,2.01,2.01,2.93,3.09c1.23,1.44,1.95,3.11,1.9,5.04c-0.03,1.03-0.32,2-0.87,2.88c-0.74,1.19-1.82,1.8-3.21,1.9
		c-0.09,0.01-0.19,0.03-0.28,0.04C782.24,119.58,781.87,119.58,781.5,119.58z"/>
	<path class="st0" d="M792.94,98.11c-0.12,0.56-0.2,1.13-0.36,1.67c-0.55,1.79-1.54,3.3-3.04,4.44c-1.09,0.83-2.32,1.16-3.67,0.87
		c-0.92-0.19-1.59-0.76-2.11-1.52c-0.61-0.88-0.91-1.89-0.95-2.94c-0.12-2.95,0.9-5.43,3.15-7.37c0.64-0.55,1.37-0.95,2.2-1.11
		c1.73-0.33,3.16,0.33,4.05,1.86c0.39,0.67,0.66,1.39,0.71,2.18c0,0.05,0.02,0.1,0.03,0.15C792.94,96.94,792.94,97.53,792.94,98.11z
		"/>
	<path class="st0" d="M784.58,85.61c-0.05,2.41-0.64,4.44-1.94,6.25c-0.66,0.91-1.47,1.66-2.49,2.16c-1.87,0.92-3.86,0.56-5.28-0.97
		c-0.91-0.97-1.45-2.15-1.7-3.44c-0.57-3,0.02-5.76,1.86-8.22c0.6-0.8,1.34-1.44,2.23-1.9c1.93-1,4.07-0.6,5.51,1.03
		c0.96,1.09,1.47,2.38,1.68,3.8C784.53,84.82,784.56,85.31,784.58,85.61z"/>
	<path class="st0" d="M758.09,86.35c0.07-0.75,0.08-1.52,0.24-2.25c0.27-1.24,0.86-2.34,1.77-3.25c1.76-1.75,4.24-1.58,5.88-0.39
		c1.77,1.28,2.86,3.01,3.37,5.12c0.4,1.65,0.46,3.3,0,4.95c-0.27,0.97-0.69,1.87-1.35,2.65c-1.51,1.79-3.7,2.2-5.76,1.08
		c-1.03-0.56-1.84-1.36-2.49-2.33c-0.79-1.18-1.32-2.46-1.54-3.86c-0.09-0.56-0.06-1.14-0.08-1.72
		C758.12,86.35,758.11,86.35,758.09,86.35z"/>
	<path class="st0" d="M759.82,99.75c-0.01,1.33-0.11,2.28-0.54,3.17c-0.58,1.19-1.48,2.02-2.82,2.24c-1.19,0.2-2.28-0.13-3.23-0.83
		c-1.76-1.28-2.86-3.01-3.35-5.13c-0.32-1.4-0.34-2.79,0.13-4.16c0.36-1.04,0.95-1.91,1.95-2.44c1.11-0.59,2.25-0.54,3.38-0.04
		c1.32,0.59,2.31,1.57,3.08,2.76C759.36,96.77,759.85,98.37,759.82,99.75z"/>
</g>
<g>
	<path class="st0" d="M841.86,119.58c-0.41-0.05-0.83-0.09-1.24-0.16c-1.45-0.26-2.89-0.54-4.34-0.78
		c-1.22-0.21-2.45-0.42-3.68-0.55c-1.86-0.18-3.7,0.02-5.52,0.4c-1.58,0.33-3.17,0.63-4.77,0.89c-1.29,0.21-2.58,0.23-3.84-0.19
		c-1.73-0.57-3.04-2.26-3.2-4.07c-0.12-1.42,0.29-2.7,0.96-3.92c0.75-1.38,1.72-2.6,2.93-3.59c2.42-1.98,4.4-4.34,6.15-6.92
		c0.78-1.14,1.65-2.22,2.72-3.12c1.33-1.11,2.85-1.56,4.58-1.47c1.9,0.1,3.24,1.09,4.29,2.55c0.49,0.68,0.92,1.4,1.32,2.14
		c1.16,2.14,2.65,4.05,4.27,5.85c0.95,1.05,2.01,2.01,2.93,3.09c1.23,1.44,1.95,3.11,1.9,5.04c-0.03,1.03-0.32,2-0.87,2.88
		c-0.74,1.19-1.82,1.8-3.21,1.9c-0.09,0.01-0.19,0.03-0.28,0.04C842.59,119.58,842.22,119.58,841.86,119.58z"/>
	<path class="st0" d="M853.29,98.11c-0.12,0.56-0.2,1.13-0.36,1.67c-0.55,1.79-1.54,3.3-3.04,4.44c-1.09,0.83-2.32,1.16-3.67,0.87
		c-0.92-0.19-1.59-0.76-2.11-1.52c-0.61-0.88-0.91-1.89-0.95-2.94c-0.12-2.95,0.9-5.43,3.15-7.37c0.64-0.55,1.37-0.95,2.2-1.11
		c1.73-0.33,3.16,0.33,4.05,1.86c0.39,0.67,0.66,1.39,0.71,2.18c0,0.05,0.02,0.1,0.03,0.15C853.29,96.94,853.29,97.53,853.29,98.11z
		"/>
	<path class="st0" d="M844.94,85.61c-0.05,2.41-0.64,4.44-1.94,6.25c-0.66,0.91-1.47,1.66-2.49,2.16c-1.87,0.92-3.86,0.56-5.28-0.97
		c-0.91-0.97-1.45-2.15-1.7-3.44c-0.57-3,0.02-5.76,1.86-8.22c0.6-0.8,1.34-1.44,2.23-1.9c1.93-1,4.07-0.6,5.51,1.03
		c0.96,1.09,1.47,2.38,1.68,3.8C844.89,84.82,844.91,85.31,844.94,85.61z"/>
	<path class="st0" d="M818.45,86.35c0.07-0.75,0.08-1.52,0.24-2.25c0.27-1.24,0.86-2.34,1.77-3.25c1.76-1.75,4.24-1.58,5.88-0.39
		c1.77,1.28,2.86,3.01,3.37,5.12c0.4,1.65,0.46,3.3,0,4.95c-0.27,0.97-0.69,1.87-1.35,2.65c-1.51,1.79-3.7,2.2-5.76,1.08
		c-1.03-0.56-1.84-1.36-2.49-2.33c-0.79-1.18-1.32-2.46-1.54-3.86c-0.09-0.56-0.06-1.14-0.08-1.72
		C818.47,86.35,818.46,86.35,818.45,86.35z"/>
	<path class="st0" d="M820.18,99.75c-0.01,1.33-0.11,2.28-0.54,3.17c-0.58,1.19-1.48,2.02-2.82,2.24c-1.19,0.2-2.28-0.13-3.23-0.83
		c-1.76-1.28-2.86-3.01-3.35-5.13c-0.32-1.4-0.34-2.79,0.13-4.16c0.36-1.04,0.95-1.91,1.95-2.44c1.11-0.59,2.25-0.54,3.38-0.04
		c1.32,0.59,2.31,1.57,3.08,2.76C819.71,96.77,820.2,98.37,820.18,99.75z"/>
</g>
<g>
	<path class="st0" d="M902.21,119.58c-0.41-0.05-0.83-0.09-1.24-0.16c-1.45-0.26-2.89-0.54-4.34-0.78
		c-1.22-0.21-2.45-0.42-3.68-0.55c-1.86-0.18-3.7,0.02-5.52,0.4c-1.58,0.33-3.17,0.63-4.77,0.89c-1.29,0.21-2.58,0.23-3.84-0.19
		c-1.73-0.57-3.04-2.26-3.2-4.07c-0.12-1.42,0.29-2.7,0.96-3.92c0.75-1.38,1.72-2.6,2.93-3.59c2.42-1.98,4.4-4.34,6.15-6.92
		c0.78-1.14,1.65-2.22,2.72-3.12c1.33-1.11,2.85-1.56,4.58-1.47c1.9,0.1,3.24,1.09,4.29,2.55c0.49,0.68,0.92,1.4,1.32,2.14
		c1.16,2.14,2.65,4.05,4.27,5.85c0.95,1.05,2.01,2.01,2.93,3.09c1.23,1.44,1.95,3.11,1.9,5.04c-0.03,1.03-0.32,2-0.87,2.88
		c-0.74,1.19-1.82,1.8-3.21,1.9c-0.09,0.01-0.19,0.03-0.28,0.04C902.95,119.58,902.58,119.58,902.21,119.58z"/>
	<path class="st0" d="M913.65,98.11c-0.12,0.56-0.2,1.13-0.36,1.67c-0.55,1.79-1.54,3.3-3.04,4.44c-1.09,0.83-2.32,1.16-3.67,0.87
		c-0.92-0.19-1.59-0.76-2.11-1.52c-0.61-0.88-0.91-1.89-0.95-2.94c-0.12-2.95,0.9-5.43,3.15-7.37c0.64-0.55,1.37-0.95,2.2-1.11
		c1.73-0.33,3.16,0.33,4.05,1.86c0.39,0.67,0.66,1.39,0.71,2.18c0,0.05,0.02,0.1,0.03,0.15C913.65,96.94,913.65,97.53,913.65,98.11z
		"/>
	<path class="st0" d="M905.29,85.61c-0.05,2.41-0.64,4.44-1.94,6.25c-0.66,0.91-1.47,1.66-2.49,2.16c-1.87,0.92-3.86,0.56-5.28-0.97
		c-0.91-0.97-1.45-2.15-1.7-3.44c-0.57-3,0.02-5.76,1.86-8.22c0.6-0.8,1.34-1.44,2.23-1.9c1.93-1,4.07-0.6,5.51,1.03
		c0.96,1.09,1.47,2.38,1.68,3.8C905.24,84.82,905.26,85.31,905.29,85.61z"/>
	<path class="st0" d="M878.8,86.35c0.07-0.75,0.08-1.52,0.24-2.25c0.27-1.24,0.86-2.34,1.77-3.25c1.76-1.75,4.24-1.58,5.88-0.39
		c1.77,1.28,2.86,3.01,3.37,5.12c0.4,1.65,0.46,3.3,0,4.95c-0.27,0.97-0.69,1.87-1.35,2.65c-1.51,1.79-3.7,2.2-5.76,1.08
		c-1.03-0.56-1.84-1.36-2.49-2.33c-0.79-1.18-1.32-2.46-1.54-3.86c-0.09-0.56-0.06-1.14-0.08-1.72
		C878.83,86.35,878.81,86.35,878.8,86.35z"/>
	<path class="st0" d="M880.53,99.75c-0.01,1.33-0.11,2.28-0.54,3.17c-0.58,1.19-1.48,2.02-2.82,2.24c-1.19,0.2-2.28-0.13-3.23-0.83
		c-1.76-1.28-2.86-3.01-3.35-5.13c-0.32-1.4-0.34-2.79,0.13-4.16c0.36-1.04,0.95-1.91,1.95-2.44c1.11-0.59,2.25-0.54,3.38-0.04
		c1.32,0.59,2.31,1.57,3.08,2.76C880.07,96.77,880.55,98.37,880.53,99.75z"/>
</g>
<g>
	<path class="st0" d="M962.56,119.58c-0.41-0.05-0.83-0.09-1.24-0.16c-1.45-0.26-2.89-0.54-4.34-0.78
		c-1.22-0.21-2.45-0.42-3.68-0.55c-1.86-0.18-3.7,0.02-5.52,0.4c-1.58,0.33-3.17,0.63-4.77,0.89c-1.29,0.21-2.58,0.23-3.84-0.19
		c-1.73-0.57-3.04-2.26-3.2-4.07c-0.12-1.42,0.29-2.7,0.96-3.92c0.75-1.38,1.72-2.6,2.93-3.59c2.42-1.98,4.4-4.34,6.15-6.92
		c0.78-1.14,1.65-2.22,2.72-3.12c1.33-1.11,2.85-1.56,4.58-1.47c1.9,0.1,3.24,1.09,4.29,2.55c0.49,0.68,0.92,1.4,1.32,2.14
		c1.16,2.14,2.65,4.05,4.27,5.85c0.95,1.05,2.01,2.01,2.93,3.09c1.23,1.44,1.95,3.11,1.9,5.04c-0.03,1.03-0.32,2-0.87,2.88
		c-0.74,1.19-1.82,1.8-3.21,1.9c-0.09,0.01-0.19,0.03-0.28,0.04C963.3,119.58,962.93,119.58,962.56,119.58z"/>
	<path class="st0" d="M974,98.11c-0.12,0.56-0.2,1.13-0.36,1.67c-0.55,1.79-1.54,3.3-3.04,4.44c-1.09,0.83-2.32,1.16-3.67,0.87
		c-0.92-0.19-1.59-0.76-2.11-1.52c-0.61-0.88-0.91-1.89-0.95-2.94c-0.12-2.95,0.9-5.43,3.15-7.37c0.64-0.55,1.37-0.95,2.2-1.11
		c1.73-0.33,3.16,0.33,4.05,1.86c0.39,0.67,0.66,1.39,0.71,2.18c0,0.05,0.02,0.1,0.03,0.15C974,96.94,974,97.53,974,98.11z"/>
	<path class="st0" d="M965.64,85.61c-0.05,2.41-0.64,4.44-1.94,6.25c-0.66,0.91-1.47,1.66-2.49,2.16c-1.87,0.92-3.86,0.56-5.28-0.97
		c-0.91-0.97-1.45-2.15-1.7-3.44c-0.57-3,0.02-5.76,1.86-8.22c0.6-0.8,1.34-1.44,2.23-1.9c1.93-1,4.07-0.6,5.51,1.03
		c0.96,1.09,1.47,2.38,1.68,3.8C965.59,84.82,965.61,85.31,965.64,85.61z"/>
	<path class="st0" d="M939.15,86.35c0.07-0.75,0.08-1.52,0.24-2.25c0.27-1.24,0.86-2.34,1.77-3.25c1.76-1.75,4.24-1.58,5.88-0.39
		c1.77,1.28,2.86,3.01,3.37,5.12c0.4,1.65,0.46,3.3,0,4.95c-0.27,0.97-0.69,1.87-1.35,2.65c-1.51,1.79-3.7,2.2-5.76,1.08
		c-1.03-0.56-1.84-1.36-2.49-2.33c-0.79-1.18-1.32-2.46-1.54-3.86c-0.09-0.56-0.06-1.14-0.08-1.72
		C939.18,86.35,939.16,86.35,939.15,86.35z"/>
	<path class="st0" d="M940.88,99.75c-0.01,1.33-0.11,2.28-0.54,3.17c-0.58,1.19-1.48,2.02-2.82,2.24c-1.19,0.2-2.27-0.13-3.23-0.83
		c-1.76-1.28-2.86-3.01-3.35-5.13c-0.32-1.4-0.34-2.79,0.13-4.16c0.36-1.04,0.95-1.91,1.95-2.44c1.11-0.59,2.25-0.54,3.38-0.04
		c1.32,0.59,2.31,1.57,3.08,2.76C940.42,96.77,940.91,98.37,940.88,99.75z"/>
</g>
</svg>
