<?xml version="1.0" encoding="utf-8"?>
<!-- Generator: Adobe Illustrator 27.0.0, SVG Export Plug-In . SVG Version: 6.00 Build 0)  -->
<svg version="1.1" id="Layer_1" xmlns="http://www.w3.org/2000/svg" xmlns:xlink="http://www.w3.org/1999/xlink" x="0px" y="0px"
	 viewBox="0 0 144 144" style="enable-background:new 0 0 144 144;" xml:space="preserve">
<style type="text/css">
	.st0{fill:#A88367;}
	.st1{fill:none;}
	.st2{fill:#FFFFFF;}
	.st3{font-family:'Milky-Coffee';}
	.st4{font-size:44px;}
</style>
<g>
	<path class="st0" d="M93.24,110.56c-0.85-0.11-1.7-0.19-2.54-0.33c-2.96-0.52-5.91-1.1-8.88-1.6c-2.5-0.42-5.01-0.87-7.54-1.12
		c-3.8-0.38-7.56,0.03-11.3,0.82c-3.24,0.68-6.49,1.29-9.75,1.82c-2.63,0.43-5.28,0.47-7.86-0.39c-3.53-1.17-6.22-4.63-6.54-8.34
		c-0.25-2.9,0.6-5.53,1.97-8.03c1.54-2.82,3.52-5.31,5.99-7.34c4.95-4.06,9-8.89,12.59-14.15c1.59-2.34,3.37-4.55,5.57-6.38
		c2.72-2.26,5.84-3.19,9.38-3.01c3.89,0.2,6.63,2.22,8.78,5.22c1,1.39,1.89,2.87,2.71,4.37c2.38,4.39,5.41,8.29,8.74,11.97
		c1.95,2.15,4.11,4.12,6,6.32c2.52,2.94,4,6.36,3.88,10.32c-0.06,2.11-0.66,4.08-1.79,5.89c-1.52,2.43-3.73,3.67-6.56,3.88
		c-0.19,0.01-0.38,0.06-0.57,0.09C94.75,110.56,93.99,110.56,93.24,110.56z"/>
	<path class="st0" d="M116.65,66.65c-0.24,1.14-0.4,2.31-0.74,3.42c-1.12,3.67-3.15,6.74-6.22,9.08c-2.23,1.7-4.74,2.37-7.52,1.79
		c-1.89-0.4-3.26-1.56-4.32-3.11c-1.24-1.81-1.86-3.86-1.95-6.02c-0.25-6.03,1.84-11.11,6.44-15.07c1.3-1.12,2.8-1.95,4.5-2.28
		c3.54-0.68,6.47,0.68,8.28,3.81c0.8,1.38,1.35,2.85,1.46,4.46c0.01,0.1,0.04,0.2,0.07,0.3C116.65,64.24,116.65,65.44,116.65,66.65z
		"/>
	<path class="st0" d="M99.55,41.06c-0.09,4.93-1.31,9.1-3.97,12.79c-1.35,1.87-3.01,3.4-5.1,4.43c-3.83,1.88-7.89,1.14-10.8-1.98
		c-1.86-1.99-2.96-4.39-3.47-7.03c-1.17-6.14,0.05-11.78,3.81-16.82c1.22-1.63,2.75-2.94,4.57-3.89c3.94-2.05,8.33-1.23,11.27,2.11
		c1.96,2.23,3,4.87,3.44,7.77C99.44,39.44,99.49,40.45,99.55,41.06z"/>
	<path class="st0" d="M45.34,42.57c0.15-1.54,0.16-3.11,0.49-4.6c0.56-2.54,1.76-4.78,3.63-6.64c3.6-3.59,8.67-3.23,12.02-0.81
		c3.62,2.61,5.86,6.16,6.9,10.47c0.81,3.37,0.95,6.76,0,10.13c-0.56,1.99-1.42,3.84-2.76,5.43c-3.09,3.66-7.57,4.5-11.79,2.22
		c-2.11-1.14-3.77-2.79-5.09-4.77c-1.61-2.41-2.71-5.03-3.15-7.9c-0.18-1.15-0.12-2.34-0.17-3.51
		C45.39,42.58,45.36,42.57,45.34,42.57z"/>
	<path class="st0" d="M48.88,70c-0.01,2.71-0.22,4.67-1.11,6.48c-1.19,2.43-3.02,4.13-5.77,4.58c-2.43,0.4-4.66-0.27-6.61-1.69
		c-3.6-2.62-5.86-6.16-6.85-10.5c-0.65-2.86-0.69-5.7,0.27-8.51c0.73-2.13,1.95-3.91,3.98-5c2.28-1.21,4.6-1.11,6.91-0.07
		c2.7,1.21,4.73,3.22,6.3,5.65C47.93,63.9,48.93,67.17,48.88,70z"/>
</g>
<rect x="64.56" y="69.87" class="st1" width="45.44" height="37.13"/>
<text transform="matrix(1 0 0 1 64.5625 102.3867)" class="st2 st3 st4">1</text>
</svg>
